<svg xmlns="http://www.w3.org/2000/svg" viewBox="0 0 20.72 19.44"><defs><style>.cls-1{fill:#2babe2;}.cls-2{fill:#fff;}</style></defs><g id="Layer_2" data-name="Layer 2"><g id="Layer_1-2" data-name="Layer 1"><path class="cls-1" d="M2.25,0H18.47a2.21,2.21,0,0,1,1.59.66,2.25,2.25,0,0,1,.66,1.59V13.88a2.21,2.21,0,0,1-2.25,2.21H13.41a.53.53,0,0,0-.39.18l-2.68,3.17L7.7,16.27a.53.53,0,0,0-.39-.18H2.25A2.21,2.21,0,0,1,0,13.88V2.25A2.21,2.21,0,0,1,.66.66,2.21,2.21,0,0,1,2.25,0Z"/><path class="cls-2" d="M10.76,3.92,12,6.56a.49.49,0,0,0,.37.27l2.88.47-2.12,2a.51.51,0,0,0-.15.44l.44,2.89-2.55-1.4a.5.5,0,0,0-.46,0l-2.6,1.32.53-2.87a.53.53,0,0,0-.13-.45L6.17,7.16l2.88-.38a.52.52,0,0,0,.38-.26Z"/></g></g></svg>